<svg width="28" height="27" viewBox="0 0 28 27" fill="none" xmlns="http://www.w3.org/2000/svg">
<path d="M22 12.68C21.6463 12.68 21.3072 12.8205 21.0572 13.0705C20.8071 13.3206 20.6666 13.6597 20.6666 14.0133V23.3467H18V16.68C18 16.3264 17.8595 15.9872 17.6094 15.7372C17.3594 15.4871 17.0203 15.3467 16.6666 15.3467H11.3333C10.9797 15.3467 10.6405 15.4871 10.3905 15.7372C10.1404 15.9872 9.99997 16.3264 9.99997 16.68V23.3467H7.3333V14.0133C7.3333 13.6597 7.19282 13.3206 6.94278 13.0705C6.69273 12.8205 6.35359 12.68 5.99997 12.68C5.64634 12.68 5.30721 12.8205 5.05716 13.0705C4.80711 13.3206 4.66663 13.6597 4.66663 14.0133V24.68C4.66663 25.0336 4.80711 25.3728 5.05716 25.6228C5.30721 25.8729 5.64634 26.0133 5.99997 26.0133H22C22.3536 26.0133 22.6927 25.8729 22.9428 25.6228C23.1928 25.3728 23.3333 25.0336 23.3333 24.68V14.0133C23.3333 13.6597 23.1928 13.3206 22.9428 13.0705C22.6927 12.8205 22.3536 12.68 22 12.68ZM15.3333 23.3467H12.6666V18.0133H15.3333V23.3467ZM27.1333 13C27.0084 13.1422 26.8546 13.2562 26.6821 13.3344C26.5097 13.4125 26.3226 13.4531 26.1333 13.4533C25.8092 13.4529 25.4964 13.3344 25.2533 13.12L14 3.14667L2.74663 13.0667C2.61682 13.1914 2.46312 13.2885 2.29477 13.3521C2.12642 13.4158 1.94693 13.4448 1.7671 13.4372C1.58727 13.4297 1.41083 13.3858 1.24841 13.3082C1.08599 13.2307 0.940957 13.121 0.822052 12.9859C0.703146 12.8508 0.612829 12.693 0.556543 12.522C0.500257 12.3511 0.479167 12.1705 0.494546 11.9911C0.509924 11.8118 0.561451 11.6375 0.646023 11.4786C0.730595 11.3197 0.846459 11.1796 0.986634 11.0667L13.12 0.400005C13.3633 0.186246 13.6761 0.0683594 14 0.0683594C14.3238 0.0683594 14.6366 0.186246 14.88 0.400005L27.0133 11.0667C27.1525 11.1829 27.2665 11.3263 27.3483 11.488C27.4302 11.6498 27.4782 11.8265 27.4895 12.0075C27.5007 12.1885 27.4749 12.3698 27.4137 12.5405C27.3524 12.7111 27.257 12.8675 27.1333 13Z" fill="white"/>
</svg>
